<svg xmlns="http://www.w3.org/2000/svg" viewBox="0 0 96 96" width="96" height="96" role="img" aria-label="آواتار 7">
  <defs>
    <linearGradient id="bg6" x1="0" y1="0" x2="1" y2="1"><stop offset="0" stop-color="#67e8f9"/><stop offset="1" stop-color="#06b6d4"/></linearGradient>
    <clipPath id="clip6"><circle cx="48" cy="48" r="48"/></clipPath>
  </defs>
  <g clip-path="url(#clip6)">
    <rect width="96" height="96" fill="url(#bg6)"/>
    <circle cx="48" cy="40" r="17" fill="#e7b48f"/>
    <path d="M31 38c0-13 8-19 17-19s17 6 17 19c0-6-7-8-17-8s-17 2-17 8z" fill="#374151"/>
    <path d="M18 96c0-17 14-27 30-27s30 10 30 27z" fill="#0891b2" fill-opacity=".92"/>
    <circle cx="42" cy="41" r="2" fill="#1f2937"/>
    <circle cx="54" cy="41" r="2" fill="#1f2937"/>
    <path d="M43 49c2.5 2.4 7.5 2.4 10 0" stroke="#7c3f1d" stroke-width="1.6" stroke-linecap="round" fill="none"/>
  </g>
</svg>
